<svg width="30" height="30" viewBox="0 0 30 30" fill="none" xmlns="http://www.w3.org/2000/svg">
<path d="M8.83809 0.600098C4.20729 0.600098 0.44043 4.37044 0.44043 9.00244V21.0024C0.44043 25.6332 4.21077 29.4001 8.84277 29.4001H20.8428C25.4736 29.4001 29.2404 25.6298 29.2404 20.9978V8.99775C29.2404 4.36695 25.4701 0.600098 20.8381 0.600098H8.83809ZM23.2404 5.4001C23.9028 5.4001 24.4404 5.9377 24.4404 6.6001C24.4404 7.2625 23.9028 7.8001 23.2404 7.8001C22.578 7.8001 22.0404 7.2625 22.0404 6.6001C22.0404 5.9377 22.578 5.4001 23.2404 5.4001ZM14.8404 7.8001C18.8112 7.8001 22.0404 11.0293 22.0404 15.0001C22.0404 18.9709 18.8112 22.2001 14.8404 22.2001C10.8696 22.2001 7.64043 18.9709 7.64043 15.0001C7.64043 11.0293 10.8696 7.8001 14.8404 7.8001ZM14.8404 10.2001C13.5674 10.2001 12.3465 10.7058 11.4463 11.606C10.5461 12.5062 10.0404 13.7271 10.0404 15.0001C10.0404 16.2731 10.5461 17.494 11.4463 18.3942C12.3465 19.2944 13.5674 19.8001 14.8404 19.8001C16.1135 19.8001 17.3344 19.2944 18.2345 18.3942C19.1347 17.494 19.6404 16.2731 19.6404 15.0001C19.6404 13.7271 19.1347 12.5062 18.2345 11.606C17.3344 10.7058 16.1135 10.2001 14.8404 10.2001Z" fill="white"/>
</svg>
